<svg xmlns="http://www.w3.org/2000/svg" xmlns:xlink="http://www.w3.org/1999/xlink" width="500" zoomAndPan="magnify" viewBox="0 0 375 374.999991" height="500" preserveAspectRatio="xMidYMid meet" version="1.0"><defs><g/><clipPath id="92ec49cf90"><path d="M 209 94 L 312 94 L 312 191 L 209 191 Z M 209 94 " clip-rule="nonzero"/></clipPath><clipPath id="4a69c8bfe6"><path d="M 196.890625 108.410156 L 294.824219 79.898438 L 321.871094 172.792969 L 223.933594 201.304688 Z M 196.890625 108.410156 " clip-rule="nonzero"/></clipPath><clipPath id="c1083c8c4d"><path d="M 196.890625 108.410156 L 294.824219 79.898438 L 321.871094 172.792969 L 223.933594 201.304688 Z M 196.890625 108.410156 " clip-rule="nonzero"/></clipPath><clipPath id="a64b1385cc"><path d="M 251 125 L 278 125 L 278 151 L 251 151 Z M 251 125 " clip-rule="nonzero"/></clipPath><clipPath id="2e097754b2"><path d="M 196.890625 108.410156 L 294.824219 79.898438 L 321.871094 172.792969 L 223.933594 201.304688 Z M 196.890625 108.410156 " clip-rule="nonzero"/></clipPath><clipPath id="cf69eb9c13"><path d="M 196.890625 108.410156 L 294.824219 79.898438 L 321.871094 172.792969 L 223.933594 201.304688 Z M 196.890625 108.410156 " clip-rule="nonzero"/></clipPath></defs><g clip-path="url(#92ec49cf90)"><g clip-path="url(#4a69c8bfe6)"><g clip-path="url(#c1083c8c4d)"><path fill="#f4a4f0" d="M 250.945312 151.175781 C 249.40625 151.835938 248.308594 152.308594 247.210938 152.773438 C 246.195312 153.203125 245.1875 153.644531 244.160156 154.042969 C 238.480469 156.246094 232.679688 157.996094 226.527344 158.074219 C 224.558594 158.101562 222.550781 157.953125 220.621094 157.566406 C 219.027344 157.246094 217.425781 156.640625 216.003906 155.847656 C 209.675781 152.328125 208.019531 144.71875 212.214844 138.792969 C 214.457031 135.628906 217.585938 133.589844 221.082031 132.117188 C 227.859375 129.261719 234.832031 128.1875 242.078125 130.109375 C 242.285156 130.164062 242.515625 130.128906 242.753906 130.132812 C 243.238281 129.503906 242.597656 129.183594 242.335938 128.804688 C 240.476562 126.078125 238.574219 123.375 236.714844 120.648438 C 234.761719 117.78125 233.480469 114.632812 232.917969 111.210938 C 231.734375 104.097656 235.605469 97.6875 242.445312 95.410156 C 247.886719 93.597656 253.113281 94.355469 258.160156 96.816406 C 261.695312 98.539062 264.554688 101.09375 266.898438 104.242188 C 269.703125 108.007812 271.550781 112.222656 272.757812 116.738281 C 273.011719 117.691406 273.308594 118.632812 273.660156 119.847656 C 273.980469 119.355469 274.289062 119.003906 274.460938 118.59375 C 275.171875 116.863281 275.726562 115.058594 276.550781 113.386719 C 278.609375 109.207031 281.703125 106.03125 285.929688 103.949219 C 288.503906 102.679688 291.183594 102.320312 293.964844 102.695312 C 299.125 103.390625 302.632812 107.503906 302.652344 112.734375 C 302.664062 115.121094 301.929688 117.285156 300.804688 119.347656 C 299.367188 121.996094 297.410156 124.230469 295.179688 126.226562 C 291.554688 129.46875 287.632812 132.3125 283.382812 134.691406 C 282.835938 134.996094 282.082031 135.113281 282.054688 136.117188 C 283.136719 136.144531 284.21875 136.179688 285.296875 136.195312 C 289.617188 136.253906 293.867188 136.804688 298.023438 138 C 300.804688 138.796875 303.457031 139.894531 305.679688 141.785156 C 310.347656 145.765625 312.351562 150.839844 311.058594 156.851562 C 309.730469 163.019531 306.019531 167.292969 299.824219 169.105469 C 297.675781 169.734375 295.453125 169.679688 293.257812 169.390625 C 288.539062 168.769531 284.316406 166.964844 280.84375 163.679688 C 279.171875 162.097656 277.730469 160.269531 276.199219 158.542969 C 275.347656 157.582031 274.628906 156.457031 273.300781 156.039062 C 273.726562 159.558594 274.234375 162.929688 274.507812 166.316406 C 274.769531 169.519531 274.375 172.699219 273.53125 175.808594 C 272.773438 178.605469 271.554688 181.179688 269.816406 183.503906 C 267.113281 187.117188 263.566406 189.417969 259.105469 190.0625 C 256.832031 190.390625 254.496094 190.382812 252.1875 190.351562 C 250.601562 190.332031 249.1875 189.566406 248.011719 188.539062 C 243.585938 184.671875 240.851562 179.921875 240.714844 173.921875 C 240.589844 168.339844 242.179688 163.253906 245.441406 158.722656 C 246.792969 156.84375 248.253906 155.046875 249.644531 153.195312 C 250.03125 152.6875 250.339844 152.121094 250.941406 151.171875 Z M 250.945312 151.175781 " fill-opacity="1" fill-rule="nonzero"/></g></g></g><g clip-path="url(#a64b1385cc)"><g clip-path="url(#2e097754b2)"><g clip-path="url(#cf69eb9c13)"><path fill="#f2f2e4" d="M 252 141.195312 C 250.417969 135.820312 252.714844 129.65625 257.824219 126.890625 C 262.152344 124.542969 266.578125 124.757812 270.726562 127.25 C 274.890625 129.75 277.105469 133.621094 277.089844 138.507812 C 277.0625 146.757812 270.3125 152.160156 262.203125 150.585938 C 257.117188 149.597656 253.617188 146.816406 252 141.195312 Z M 252 141.195312 " fill-opacity="1" fill-rule="nonzero"/></g></g></g><g fill="#ffc767" fill-opacity="1"><g transform="translate(0.0000045, 174.546932)"><g><path d="M 61.0625 -42.53125 C 61.0625 -41.5625 61.285156 -40.816406 61.734375 -40.296875 C 62.179688 -39.773438 62.628906 -39.21875 63.078125 -38.625 C 63.523438 -38.03125 63.75 -37.0625 63.75 -35.71875 C 63.75 -34.457031 63.410156 -33.304688 62.734375 -32.265625 C 62.441406 -31.816406 62.128906 -31.40625 61.796875 -31.03125 C 61.460938 -30.664062 61.035156 -30.367188 60.515625 -30.140625 C 60.515625 -29.847656 60.492188 -28.863281 60.453125 -27.1875 C 60.410156 -25.507812 60.332031 -23.535156 60.21875 -21.265625 C 60.113281 -18.992188 60.003906 -16.722656 59.890625 -14.453125 C 59.785156 -12.179688 59.65625 -10.300781 59.5 -8.8125 C 59.425781 -7.25 58.832031 -6.019531 57.71875 -5.125 C 56.601562 -4.238281 55.335938 -3.796875 53.921875 -3.796875 C 53.253906 -3.796875 52.582031 -3.90625 51.90625 -4.125 C 50.195312 -4.726562 49.0625 -5.640625 48.5 -6.859375 C 47.945312 -8.085938 47.671875 -9.410156 47.671875 -10.828125 C 47.671875 -10.453125 47.6875 -10.765625 47.71875 -11.765625 C 47.757812 -12.773438 47.832031 -14.15625 47.9375 -15.90625 C 48.050781 -17.65625 48.144531 -19.457031 48.21875 -21.3125 C 48.300781 -23.175781 48.378906 -24.832031 48.453125 -26.28125 C 48.523438 -27.738281 48.5625 -28.617188 48.5625 -28.921875 C 48.5625 -30.328125 48.300781 -31.03125 47.78125 -31.03125 C 47.257812 -31.03125 46.367188 -31.109375 45.109375 -31.265625 C 43.984375 -31.410156 42.359375 -31.578125 40.234375 -31.765625 C 38.117188 -31.953125 35.851562 -32.097656 33.4375 -32.203125 C 31.019531 -32.316406 28.769531 -32.375 26.6875 -32.375 C 25.71875 -32.375 24.691406 -32.445312 23.609375 -32.59375 C 22.535156 -32.75 21.585938 -33.085938 20.765625 -33.609375 C 20.460938 -29.066406 20.070312 -24.5625 19.59375 -20.09375 C 19.113281 -15.625 18.5 -11.195312 17.75 -6.8125 C 17.445312 -4.945312 16.796875 -3.34375 15.796875 -2 C 14.796875 -0.664062 13.4375 0 11.71875 0 C 11.050781 0 10.304688 -0.109375 9.484375 -0.328125 C 7.992188 -0.847656 6.96875 -1.628906 6.40625 -2.671875 C 5.851562 -3.722656 5.578125 -4.914062 5.578125 -6.25 C 5.578125 -7.519531 5.722656 -8.820312 6.015625 -10.15625 C 6.316406 -11.5 6.546875 -12.726562 6.703125 -13.84375 C 7.367188 -18.382812 7.925781 -23.109375 8.375 -28.015625 C 8.820312 -32.929688 9.15625 -37.695312 9.375 -42.3125 C 9.601562 -46.925781 9.71875 -50.984375 9.71875 -54.484375 C 9.71875 -55.597656 9.695312 -57.007812 9.65625 -58.71875 C 9.613281 -60.4375 9.554688 -62.164062 9.484375 -63.90625 C 9.410156 -65.65625 9.351562 -67.160156 9.3125 -68.421875 C 9.28125 -69.691406 9.265625 -70.441406 9.265625 -70.671875 C 9.265625 -72.453125 9.5625 -74.085938 10.15625 -75.578125 C 10.75 -77.066406 12.164062 -78 14.40625 -78.375 C 14.695312 -78.445312 14.953125 -78.484375 15.171875 -78.484375 C 15.398438 -78.484375 15.628906 -78.484375 15.859375 -78.484375 C 17.335938 -78.484375 18.445312 -78.035156 19.1875 -77.140625 C 19.9375 -76.242188 20.460938 -75.109375 20.765625 -73.734375 C 21.066406 -72.359375 21.21875 -71 21.21875 -69.65625 C 21.4375 -65.414062 21.546875 -61.003906 21.546875 -56.421875 C 21.546875 -51.847656 21.472656 -47.738281 21.328125 -44.09375 C 23.335938 -44.6875 25.601562 -44.875 28.125 -44.65625 C 30.65625 -44.4375 32.96875 -44.25 35.0625 -44.09375 C 39.820312 -43.875 44.472656 -43.429688 49.015625 -42.765625 C 49.015625 -49.535156 48.789062 -56.304688 48.34375 -63.078125 C 48.269531 -64.265625 48.082031 -65.617188 47.78125 -67.140625 C 47.476562 -68.671875 47.328125 -70.144531 47.328125 -71.5625 C 47.328125 -72.457031 47.421875 -73.332031 47.609375 -74.1875 C 47.796875 -75.039062 48.148438 -75.765625 48.671875 -76.359375 C 49.265625 -77.179688 50.046875 -77.796875 51.015625 -78.203125 C 51.984375 -78.609375 52.953125 -78.8125 53.921875 -78.8125 C 54.222656 -78.8125 54.519531 -78.789062 54.8125 -78.75 C 55.113281 -78.71875 55.410156 -78.664062 55.703125 -78.59375 C 57.640625 -78 58.773438 -76.84375 59.109375 -75.125 C 59.441406 -73.414062 59.6875 -71.707031 59.84375 -70 C 60.0625 -67.25 60.265625 -64.085938 60.453125 -60.515625 C 60.640625 -56.941406 60.785156 -53.535156 60.890625 -50.296875 C 61.003906 -47.054688 61.0625 -44.46875 61.0625 -42.53125 Z M 47.671875 -10.828125 Z M 47.671875 -10.828125 "/></g></g></g><g fill="#ffc767" fill-opacity="1"><g transform="translate(66.540092, 174.546932)"><g><path d="M 17.75 -0.21875 C 12.914062 -0.894531 9.210938 -2.796875 6.640625 -5.921875 C 4.078125 -9.046875 2.796875 -12.46875 2.796875 -16.1875 C 2.796875 -19.457031 3.648438 -22.65625 5.359375 -25.78125 C 7.066406 -28.914062 8.925781 -31.632812 10.9375 -33.9375 C 12.875 -36.164062 14.976562 -38.117188 17.25 -39.796875 C 19.519531 -41.472656 22.234375 -43.128906 25.390625 -44.765625 C 28.554688 -46.398438 32.410156 -48.257812 36.953125 -50.34375 C 36.210938 -52.945312 34.96875 -55.085938 33.21875 -56.765625 C 31.46875 -58.441406 29.566406 -59.539062 27.515625 -60.0625 C 25.472656 -60.582031 23.539062 -60.414062 21.71875 -59.5625 C 19.894531 -58.707031 18.5 -57.015625 17.53125 -54.484375 C 17.15625 -53.515625 16.460938 -52.75 15.453125 -52.1875 C 14.453125 -51.632812 13.429688 -51.359375 12.390625 -51.359375 C 11.046875 -51.359375 9.757812 -51.835938 8.53125 -52.796875 C 7.3125 -53.765625 6.703125 -55.070312 6.703125 -56.71875 C 6.703125 -58.207031 7.109375 -59.691406 7.921875 -61.171875 C 8.742188 -62.660156 9.726562 -64.054688 10.875 -65.359375 C 12.03125 -66.660156 13.09375 -67.648438 14.0625 -68.328125 C 15.78125 -69.585938 17.550781 -70.476562 19.375 -71 C 21.195312 -71.519531 23.035156 -71.78125 24.890625 -71.78125 C 28.390625 -71.78125 31.738281 -70.925781 34.9375 -69.21875 C 38.144531 -67.507812 40.9375 -65.21875 43.3125 -62.34375 C 45.695312 -59.476562 47.296875 -56.257812 48.109375 -52.6875 C 48.710938 -49.863281 49.050781 -47.484375 49.125 -45.546875 C 49.195312 -43.609375 49.234375 -41.894531 49.234375 -40.40625 C 49.234375 -35.644531 48.914062 -30.84375 48.28125 -26 C 47.644531 -21.164062 47.144531 -16.332031 46.78125 -11.5 C 46.707031 -10.007812 46.519531 -8.59375 46.21875 -7.25 C 45.914062 -5.914062 45.023438 -4.835938 43.546875 -4.015625 C 42.578125 -3.566406 41.832031 -3.378906 41.3125 -3.453125 C 40.789062 -3.535156 39.488281 -3.722656 37.40625 -4.015625 C 37.25 -3.941406 37.054688 -3.847656 36.828125 -3.734375 C 36.609375 -3.628906 36.390625 -3.5 36.171875 -3.34375 C 32.742188 -1.9375 29.539062 -0.988281 26.5625 -0.5 C 23.59375 -0.0195312 20.65625 0.0703125 17.75 -0.21875 Z M 17.75 -0.21875 "/></g></g></g><g fill="#ffc767" fill-opacity="1"><g transform="translate(118.566406, 174.546932)"><g><path d="M 16.1875 1.34375 C 14.25 1.34375 12.890625 0.675781 12.109375 -0.65625 C 11.328125 -2 10.863281 -3.523438 10.71875 -5.234375 C 10.570312 -6.953125 10.421875 -8.40625 10.265625 -9.59375 C 9.898438 -13.613281 9.507812 -17.296875 9.09375 -20.640625 C 8.6875 -23.992188 8.257812 -27.363281 7.8125 -30.75 C 7.363281 -34.144531 6.878906 -37.8125 6.359375 -41.75 C 6.285156 -42.789062 6.082031 -44.035156 5.75 -45.484375 C 5.414062 -46.941406 5.25 -48.378906 5.25 -49.796875 C 5.25 -54.109375 7.257812 -56.265625 11.28125 -56.265625 C 12.84375 -56.265625 13.992188 -55.722656 14.734375 -54.640625 C 15.484375 -53.566406 16.003906 -52.285156 16.296875 -50.796875 C 16.597656 -49.304688 16.820312 -47.929688 16.96875 -46.671875 C 19.875 -48.753906 22.925781 -50.519531 26.125 -51.96875 C 29.320312 -53.414062 32.671875 -54.140625 36.171875 -54.140625 C 38.847656 -54.140625 41.523438 -53.632812 44.203125 -52.625 C 46.890625 -51.625 49.234375 -50.117188 51.234375 -48.109375 C 53.242188 -46.109375 54.585938 -43.539062 55.265625 -40.40625 C 55.640625 -39 55.863281 -37.566406 55.9375 -36.109375 C 56.007812 -34.660156 56.046875 -33.191406 56.046875 -31.703125 C 56.117188 -26.046875 56.171875 -21.632812 56.203125 -18.46875 C 56.242188 -15.3125 56.265625 -12.929688 56.265625 -11.328125 C 56.265625 -9.734375 56.207031 -8.546875 56.09375 -7.765625 C 55.988281 -6.984375 55.820312 -6.144531 55.59375 -5.25 C 55.300781 -4.050781 54.648438 -3.0625 53.640625 -2.28125 C 52.640625 -1.5 51.46875 -1.109375 50.125 -1.109375 C 47.820312 -1.109375 46.148438 -2.15625 45.109375 -4.25 C 44.660156 -5.0625 44.4375 -6.25 44.4375 -7.8125 C 44.4375 -9.894531 44.453125 -11.625 44.484375 -13 C 44.523438 -14.382812 44.5625 -15.78125 44.59375 -17.1875 C 44.632812 -18.601562 44.65625 -20.316406 44.65625 -22.328125 C 44.65625 -23.742188 44.707031 -25.195312 44.8125 -26.6875 C 44.925781 -28.175781 44.984375 -29.703125 44.984375 -31.265625 C 44.984375 -33.710938 44.722656 -35.753906 44.203125 -37.390625 C 43.679688 -39.035156 43.015625 -40.304688 42.203125 -41.203125 C 41.378906 -41.566406 40.164062 -42.046875 38.5625 -42.640625 C 36.96875 -43.242188 35.757812 -43.359375 34.9375 -42.984375 C 33.375 -42.609375 31.644531 -42.007812 29.75 -41.1875 C 27.851562 -40.375 26.046875 -39.445312 24.328125 -38.40625 C 22.617188 -37.363281 21.242188 -36.320312 20.203125 -35.28125 C 19.160156 -34.238281 18.675781 -33.269531 18.75 -32.375 C 19.570312 -24.5625 20.28125 -18.53125 20.875 -14.28125 C 21.46875 -10.039062 21.765625 -7.066406 21.765625 -5.359375 C 21.765625 -0.890625 19.90625 1.34375 16.1875 1.34375 Z M 16.1875 1.34375 "/></g></g></g><g fill="#ffc767" fill-opacity="1"><g transform="translate(177.291382, 174.546932)"><g><path d="M 13.625 -61.84375 C 12.726562 -61.84375 11.832031 -62.066406 10.9375 -62.515625 C 9.96875 -63.109375 9.28125 -63.796875 8.875 -64.578125 C 8.46875 -65.359375 8.265625 -66.160156 8.265625 -66.984375 C 8.265625 -68.472656 8.800781 -69.832031 9.875 -71.0625 C 10.957031 -72.289062 12.242188 -72.90625 13.734375 -72.90625 C 14.628906 -72.90625 15.519531 -72.679688 16.40625 -72.234375 C 17.375 -71.710938 18.0625 -71.039062 18.46875 -70.21875 C 18.882812 -69.40625 19.09375 -68.585938 19.09375 -67.765625 C 19.09375 -66.273438 18.550781 -64.914062 17.46875 -63.6875 C 16.394531 -62.457031 15.113281 -61.84375 13.625 -61.84375 Z M 11.046875 0 C 9.554688 0 8.289062 -0.519531 7.25 -1.5625 C 6.582031 -2.226562 6.132812 -3.082031 5.90625 -4.125 C 5.6875 -5.164062 5.578125 -6.25 5.578125 -7.375 C 5.578125 -8.488281 5.632812 -9.582031 5.75 -10.65625 C 5.863281 -11.738281 5.921875 -12.648438 5.921875 -13.390625 C 5.921875 -18.609375 5.9375 -24.265625 5.96875 -30.359375 C 6.007812 -36.460938 6.066406 -42.117188 6.140625 -47.328125 C 6.210938 -48.972656 6.84375 -50.296875 8.03125 -51.296875 C 9.226562 -52.304688 10.570312 -52.8125 12.0625 -52.8125 C 13.550781 -52.8125 14.816406 -52.289062 15.859375 -51.25 C 16.523438 -50.570312 16.96875 -49.710938 17.1875 -48.671875 C 17.414062 -47.628906 17.53125 -46.550781 17.53125 -45.4375 C 17.53125 -44.320312 17.472656 -43.242188 17.359375 -42.203125 C 17.242188 -41.160156 17.1875 -40.226562 17.1875 -39.40625 C 17.113281 -34.195312 17.09375 -28.539062 17.125 -22.4375 C 17.164062 -16.332031 17.113281 -10.675781 16.96875 -5.46875 C 16.894531 -3.832031 16.257812 -2.507812 15.0625 -1.5 C 13.875 -0.5 12.535156 0 11.046875 0 Z M 11.046875 0 "/></g></g></g><g fill="#45b4b1" fill-opacity="1"><g transform="translate(18.781047, 255.646918)"><g><path d="M 20.09375 0 C 19.125 -0.0703125 17.929688 -0.144531 16.515625 -0.21875 C 15.109375 -0.289062 13.769531 -0.53125 12.5 -0.9375 C 11.238281 -1.351562 10.269531 -2.007812 9.59375 -2.90625 C 9.226562 -3.351562 8.914062 -4.265625 8.65625 -5.640625 C 8.394531 -7.015625 8.1875 -8.578125 8.03125 -10.328125 C 7.882812 -12.078125 7.773438 -13.734375 7.703125 -15.296875 C 7.628906 -16.859375 7.554688 -18.007812 7.484375 -18.75 C 6.960938 -24.113281 6.515625 -29.492188 6.140625 -34.890625 C 5.765625 -40.285156 5.578125 -45.695312 5.578125 -51.125 C 5.578125 -52.769531 5.59375 -54.390625 5.625 -55.984375 C 5.664062 -57.585938 5.726562 -59.207031 5.8125 -60.84375 C 6.03125 -63.59375 7.015625 -65.5625 8.765625 -66.75 C 10.515625 -67.945312 12.613281 -68.710938 15.0625 -69.046875 C 17.519531 -69.378906 19.867188 -69.582031 22.109375 -69.65625 C 25.972656 -69.8125 29.96875 -69.476562 34.09375 -68.65625 C 38.226562 -67.84375 41.820312 -66.132812 44.875 -63.53125 C 46.738281 -61.957031 48.191406 -60.09375 49.234375 -57.9375 C 50.273438 -55.78125 50.796875 -53.550781 50.796875 -51.25 C 50.796875 -49.382812 50.421875 -47.59375 49.671875 -45.875 C 48.929688 -44.164062 47.78125 -42.644531 46.21875 -41.3125 C 48.894531 -40.414062 51.535156 -39.070312 54.140625 -37.28125 C 56.742188 -35.5 58.882812 -33.378906 60.5625 -30.921875 C 62.238281 -28.460938 63.078125 -25.707031 63.078125 -22.65625 C 63.078125 -19.238281 62.21875 -16.226562 60.5 -13.625 C 58.789062 -11.019531 56.597656 -8.820312 53.921875 -7.03125 C 51.242188 -5.25 48.453125 -3.875 45.546875 -2.90625 C 41.453125 -1.5625 37.242188 -0.722656 32.921875 -0.390625 C 28.609375 -0.0546875 24.332031 0.0703125 20.09375 0 Z M 20.09375 0 "/></g></g></g><g fill="#45b4b1" fill-opacity="1"><g transform="translate(84.651266, 255.646918)"><g><path d="M 21.765625 -0.21875 C 18.191406 -0.21875 15.210938 -1.238281 12.828125 -3.28125 C 10.453125 -5.332031 8.535156 -7.976562 7.078125 -11.21875 C 5.628906 -14.457031 4.585938 -17.957031 3.953125 -21.71875 C 3.328125 -25.476562 3.015625 -29.066406 3.015625 -32.484375 C 3.015625 -34.796875 3.179688 -37.492188 3.515625 -40.578125 C 3.847656 -43.671875 4.535156 -46.890625 5.578125 -50.234375 C 6.617188 -53.585938 8.179688 -56.675781 10.265625 -59.5 C 12.128906 -62.101562 14.421875 -64.296875 17.140625 -66.078125 C 19.859375 -67.867188 22.816406 -68.765625 26.015625 -68.765625 C 30.398438 -68.765625 33.953125 -67.390625 36.671875 -64.640625 C 39.390625 -61.890625 41.234375 -58.578125 42.203125 -54.703125 C 42.578125 -53.441406 42.816406 -51.972656 42.921875 -50.296875 C 43.035156 -48.617188 43.09375 -47.035156 43.09375 -45.546875 C 43.09375 -44.054688 43.019531 -42.867188 42.875 -41.984375 C 42.644531 -40.410156 42.34375 -38.804688 41.96875 -37.171875 C 41.601562 -35.535156 40.5625 -34.421875 38.84375 -33.828125 C 36.988281 -33.078125 34.90625 -32.550781 32.59375 -32.25 C 30.289062 -31.957031 28.097656 -31.628906 26.015625 -31.265625 C 23.859375 -30.890625 21.71875 -30.40625 19.59375 -29.8125 C 17.46875 -29.21875 15.625 -29.140625 14.0625 -29.578125 C 14.132812 -28.460938 14.300781 -26.898438 14.5625 -24.890625 C 14.820312 -22.878906 15.234375 -20.832031 15.796875 -18.75 C 16.359375 -16.664062 17.175781 -14.898438 18.25 -13.453125 C 19.332031 -12.003906 20.691406 -11.28125 22.328125 -11.28125 C 23.585938 -11.28125 24.976562 -11.78125 26.5 -12.78125 C 28.03125 -13.789062 29.539062 -15.019531 31.03125 -16.46875 C 32.519531 -17.914062 33.863281 -19.3125 35.0625 -20.65625 C 36.175781 -21.988281 37.53125 -22.726562 39.125 -22.875 C 40.726562 -23.03125 42.125 -22.515625 43.3125 -21.328125 C 44.351562 -20.210938 44.875 -19.019531 44.875 -17.75 C 44.875 -16.257812 44.28125 -14.789062 43.09375 -13.34375 C 41.90625 -11.894531 40.789062 -10.609375 39.75 -9.484375 C 37.363281 -7.179688 34.644531 -5.0625 31.59375 -3.125 C 28.539062 -1.1875 25.265625 -0.21875 21.765625 -0.21875 Z M 21.765625 -0.21875 "/></g></g></g><g fill="#45b4b1" fill-opacity="1"><g transform="translate(132.546733, 255.646918)"><g><path d="M 22.109375 -0.21875 C 20.835938 -0.21875 19.609375 -0.40625 18.421875 -0.78125 C 17.234375 -1.15625 16.226562 -1.523438 15.40625 -1.890625 C 11.90625 -3.679688 9.539062 -6.175781 8.3125 -9.375 C 7.082031 -12.570312 6.394531 -15.695312 6.25 -18.75 C 5.957031 -24.039062 5.769531 -29.34375 5.6875 -34.65625 C 5.613281 -39.976562 5.578125 -45.285156 5.578125 -50.578125 L 5.578125 -69.78125 C 5.578125 -71.34375 5.671875 -72.992188 5.859375 -74.734375 C 6.046875 -76.484375 6.472656 -77.988281 7.140625 -79.25 C 7.816406 -80.519531 8.859375 -81.15625 10.265625 -81.15625 C 12.867188 -81.15625 14.859375 -80.148438 16.234375 -78.140625 C 17.617188 -76.140625 18.3125 -73.875 18.3125 -71.34375 C 18.3125 -69.550781 18.21875 -67.800781 18.03125 -66.09375 C 17.84375 -64.382812 17.75 -62.929688 17.75 -61.734375 C 17.75 -58.753906 17.726562 -55.757812 17.6875 -52.75 C 17.65625 -49.738281 17.640625 -46.707031 17.640625 -43.65625 C 17.640625 -37.925781 17.734375 -32.828125 17.921875 -28.359375 C 18.109375 -23.890625 18.332031 -20.40625 18.59375 -17.90625 C 18.851562 -15.414062 19.054688 -14.171875 19.203125 -14.171875 C 19.273438 -14.171875 19.367188 -14.019531 19.484375 -13.71875 C 19.597656 -13.425781 19.578125 -13.503906 19.421875 -13.953125 C 20.015625 -12.910156 20.773438 -12.257812 21.703125 -12 C 22.640625 -11.738281 23.609375 -11.550781 24.609375 -11.4375 C 25.617188 -11.332031 26.515625 -11.070312 27.296875 -10.65625 C 28.078125 -10.25 28.539062 -9.335938 28.6875 -7.921875 C 28.84375 -6.953125 28.9375 -6.265625 28.96875 -5.859375 C 29.007812 -5.453125 29.03125 -5.097656 29.03125 -4.796875 C 29.03125 -3.160156 28.320312 -1.988281 26.90625 -1.28125 C 25.488281 -0.570312 23.890625 -0.21875 22.109375 -0.21875 Z M 22.109375 -0.21875 "/></g></g></g><g fill="#45b4b1" fill-opacity="1"><g transform="translate(164.365403, 255.646918)"><g><path d="M 17.75 -0.21875 C 12.914062 -0.894531 9.210938 -2.796875 6.640625 -5.921875 C 4.078125 -9.046875 2.796875 -12.46875 2.796875 -16.1875 C 2.796875 -19.457031 3.648438 -22.65625 5.359375 -25.78125 C 7.066406 -28.914062 8.925781 -31.632812 10.9375 -33.9375 C 12.875 -36.164062 14.976562 -38.117188 17.25 -39.796875 C 19.519531 -41.472656 22.234375 -43.128906 25.390625 -44.765625 C 28.554688 -46.398438 32.410156 -48.257812 36.953125 -50.34375 C 36.210938 -52.945312 34.96875 -55.085938 33.21875 -56.765625 C 31.46875 -58.441406 29.566406 -59.539062 27.515625 -60.0625 C 25.472656 -60.582031 23.539062 -60.414062 21.71875 -59.5625 C 19.894531 -58.707031 18.5 -57.015625 17.53125 -54.484375 C 17.15625 -53.515625 16.460938 -52.75 15.453125 -52.1875 C 14.453125 -51.632812 13.429688 -51.359375 12.390625 -51.359375 C 11.046875 -51.359375 9.757812 -51.835938 8.53125 -52.796875 C 7.3125 -53.765625 6.703125 -55.070312 6.703125 -56.71875 C 6.703125 -58.207031 7.109375 -59.691406 7.921875 -61.171875 C 8.742188 -62.660156 9.726562 -64.054688 10.875 -65.359375 C 12.03125 -66.660156 13.09375 -67.648438 14.0625 -68.328125 C 15.78125 -69.585938 17.550781 -70.476562 19.375 -71 C 21.195312 -71.519531 23.035156 -71.78125 24.890625 -71.78125 C 28.390625 -71.78125 31.738281 -70.925781 34.9375 -69.21875 C 38.144531 -67.507812 40.9375 -65.21875 43.3125 -62.34375 C 45.695312 -59.476562 47.296875 -56.257812 48.109375 -52.6875 C 48.710938 -49.863281 49.050781 -47.484375 49.125 -45.546875 C 49.195312 -43.609375 49.234375 -41.894531 49.234375 -40.40625 C 49.234375 -35.644531 48.914062 -30.84375 48.28125 -26 C 47.644531 -21.164062 47.144531 -16.332031 46.78125 -11.5 C 46.707031 -10.007812 46.519531 -8.59375 46.21875 -7.25 C 45.914062 -5.914062 45.023438 -4.835938 43.546875 -4.015625 C 42.578125 -3.566406 41.832031 -3.378906 41.3125 -3.453125 C 40.789062 -3.535156 39.488281 -3.722656 37.40625 -4.015625 C 37.25 -3.941406 37.054688 -3.847656 36.828125 -3.734375 C 36.609375 -3.628906 36.390625 -3.5 36.171875 -3.34375 C 32.742188 -1.9375 29.539062 -0.988281 26.5625 -0.5 C 23.59375 -0.0195312 20.65625 0.0703125 17.75 -0.21875 Z M 17.75 -0.21875 "/></g></g></g><g fill="#45b4b1" fill-opacity="1"><g transform="translate(216.391705, 255.646918)"><g><path d="M 25.671875 -60.84375 C 24.035156 -60.84375 22.804688 -61.398438 21.984375 -62.515625 C 21.171875 -63.628906 20.765625 -64.859375 20.765625 -66.203125 C 20.765625 -67.691406 21.226562 -69.050781 22.15625 -70.28125 C 23.09375 -71.507812 24.488281 -72.125 26.34375 -72.125 C 27.976562 -72.125 29.207031 -71.5625 30.03125 -70.4375 C 30.851562 -69.320312 31.265625 -68.097656 31.265625 -66.765625 C 31.265625 -65.347656 30.796875 -64.003906 29.859375 -62.734375 C 28.929688 -61.472656 27.535156 -60.84375 25.671875 -60.84375 Z M 8.15625 50.234375 C 6.21875 48.816406 4.632812 46.972656 3.40625 44.703125 C 2.175781 42.441406 1.300781 40.007812 0.78125 37.40625 C 0.257812 34.800781 0 32.304688 0 29.921875 C 0 28.648438 0.09375 27.101562 0.28125 25.28125 C 0.46875 23.457031 0.96875 21.835938 1.78125 20.421875 C 2.601562 19.015625 4.019531 18.3125 6.03125 18.3125 C 7.519531 18.3125 8.785156 18.832031 9.828125 19.875 C 10.867188 20.914062 11.390625 22.363281 11.390625 24.21875 C 11.390625 25.414062 11.257812 26.628906 11 27.859375 C 10.738281 29.085938 10.609375 30.332031 10.609375 31.59375 C 10.609375 32.863281 10.867188 34.296875 11.390625 35.890625 C 11.910156 37.492188 12.484375 38.867188 13.109375 40.015625 C 13.742188 41.171875 14.210938 41.75 14.515625 41.75 C 15.328125 41.75 15.992188 41.003906 16.515625 39.515625 C 17.035156 38.023438 17.460938 36.21875 17.796875 34.09375 C 18.140625 31.976562 18.40625 29.972656 18.59375 28.078125 C 18.78125 26.179688 18.910156 24.859375 18.984375 24.109375 C 19.796875 17.335938 20.441406 10.546875 20.921875 3.734375 C 21.410156 -3.066406 21.65625 -9.859375 21.65625 -16.640625 C 21.65625 -18.867188 21.597656 -21.734375 21.484375 -25.234375 C 21.378906 -28.734375 21.210938 -32.507812 20.984375 -36.5625 C 20.765625 -40.613281 20.429688 -44.503906 19.984375 -48.234375 C 19.835938 -49.941406 20.265625 -51.203125 21.265625 -52.015625 C 22.273438 -52.835938 23.445312 -53.25 24.78125 -53.25 C 26.050781 -53.25 27.296875 -52.835938 28.515625 -52.015625 C 29.742188 -51.203125 30.4375 -49.941406 30.59375 -48.234375 C 31.1875 -43.015625 31.59375 -37.742188 31.8125 -32.421875 C 32.039062 -27.109375 32.15625 -21.804688 32.15625 -16.515625 C 32.15625 -11.234375 32.039062 -5.953125 31.8125 -0.671875 C 31.59375 4.609375 31.1875 9.894531 30.59375 15.1875 C 30.144531 19.726562 29.695312 24.488281 29.25 29.46875 C 28.800781 34.457031 27.722656 39.109375 26.015625 43.421875 C 24.972656 46.109375 23.425781 48.234375 21.375 49.796875 C 19.332031 51.359375 17.140625 52.191406 14.796875 52.296875 C 12.453125 52.410156 10.238281 51.722656 8.15625 50.234375 Z M 8.15625 50.234375 "/></g></g></g><g fill="#45b4b1" fill-opacity="1"><g transform="translate(254.127543, 255.646918)"><g><path d="M 17.75 -0.21875 C 12.914062 -0.894531 9.210938 -2.796875 6.640625 -5.921875 C 4.078125 -9.046875 2.796875 -12.46875 2.796875 -16.1875 C 2.796875 -19.457031 3.648438 -22.65625 5.359375 -25.78125 C 7.066406 -28.914062 8.925781 -31.632812 10.9375 -33.9375 C 12.875 -36.164062 14.976562 -38.117188 17.25 -39.796875 C 19.519531 -41.472656 22.234375 -43.128906 25.390625 -44.765625 C 28.554688 -46.398438 32.410156 -48.257812 36.953125 -50.34375 C 36.210938 -52.945312 34.96875 -55.085938 33.21875 -56.765625 C 31.46875 -58.441406 29.566406 -59.539062 27.515625 -60.0625 C 25.472656 -60.582031 23.539062 -60.414062 21.71875 -59.5625 C 19.894531 -58.707031 18.5 -57.015625 17.53125 -54.484375 C 17.15625 -53.515625 16.460938 -52.75 15.453125 -52.1875 C 14.453125 -51.632812 13.429688 -51.359375 12.390625 -51.359375 C 11.046875 -51.359375 9.757812 -51.835938 8.53125 -52.796875 C 7.3125 -53.765625 6.703125 -55.070312 6.703125 -56.71875 C 6.703125 -58.207031 7.109375 -59.691406 7.921875 -61.171875 C 8.742188 -62.660156 9.726562 -64.054688 10.875 -65.359375 C 12.03125 -66.660156 13.09375 -67.648438 14.0625 -68.328125 C 15.78125 -69.585938 17.550781 -70.476562 19.375 -71 C 21.195312 -71.519531 23.035156 -71.78125 24.890625 -71.78125 C 28.390625 -71.78125 31.738281 -70.925781 34.9375 -69.21875 C 38.144531 -67.507812 40.9375 -65.21875 43.3125 -62.34375 C 45.695312 -59.476562 47.296875 -56.257812 48.109375 -52.6875 C 48.710938 -49.863281 49.050781 -47.484375 49.125 -45.546875 C 49.195312 -43.609375 49.234375 -41.894531 49.234375 -40.40625 C 49.234375 -35.644531 48.914062 -30.84375 48.28125 -26 C 47.644531 -21.164062 47.144531 -16.332031 46.78125 -11.5 C 46.707031 -10.007812 46.519531 -8.59375 46.21875 -7.25 C 45.914062 -5.914062 45.023438 -4.835938 43.546875 -4.015625 C 42.578125 -3.566406 41.832031 -3.378906 41.3125 -3.453125 C 40.789062 -3.535156 39.488281 -3.722656 37.40625 -4.015625 C 37.25 -3.941406 37.054688 -3.847656 36.828125 -3.734375 C 36.609375 -3.628906 36.390625 -3.5 36.171875 -3.34375 C 32.742188 -1.9375 29.539062 -0.988281 26.5625 -0.5 C 23.59375 -0.0195312 20.65625 0.0703125 17.75 -0.21875 Z M 17.75 -0.21875 "/></g></g></g><g fill="#45b4b1" fill-opacity="1"><g transform="translate(306.153845, 255.646918)"><g><path d="M 18.640625 -4.90625 C 18.640625 -3.269531 18.0625 -2.039062 16.90625 -1.21875 C 15.757812 -0.40625 14.441406 -0.015625 12.953125 -0.046875 C 11.460938 -0.0859375 10.140625 -0.570312 8.984375 -1.5 C 7.828125 -2.4375 7.210938 -3.832031 7.140625 -5.6875 C 6.921875 -11.269531 6.71875 -16.851562 6.53125 -22.4375 C 6.34375 -28.019531 6.140625 -33.601562 5.921875 -39.1875 L 5.578125 -50.015625 C 5.503906 -51.503906 6.046875 -52.75 7.203125 -53.75 C 8.359375 -54.757812 9.640625 -55.265625 11.046875 -55.265625 C 13.210938 -55.265625 14.703125 -54.875 15.515625 -54.09375 C 16.335938 -53.3125 16.820312 -52.25 16.96875 -50.90625 C 17.113281 -49.570312 17.222656 -48.082031 17.296875 -46.4375 C 18.191406 -47.113281 19.398438 -47.859375 20.921875 -48.671875 C 22.453125 -49.492188 24.070312 -50.203125 25.78125 -50.796875 C 27.5 -51.390625 29.140625 -51.6875 30.703125 -51.6875 C 32.785156 -51.6875 34.289062 -51.085938 35.21875 -49.890625 C 36.15625 -48.703125 36.625 -47.40625 36.625 -46 C 36.625 -44.65625 36.117188 -43.648438 35.109375 -42.984375 C 34.109375 -42.316406 32.9375 -41.796875 31.59375 -41.421875 C 30.25 -41.046875 29.054688 -40.632812 28.015625 -40.1875 C 26.085938 -39.519531 24.300781 -38.570312 22.65625 -37.34375 C 21.019531 -36.113281 19.535156 -34.71875 18.203125 -33.15625 C 17.898438 -32.78125 17.671875 -32.238281 17.515625 -31.53125 C 17.367188 -30.832031 17.296875 -30.070312 17.296875 -29.25 C 17.296875 -27.6875 17.425781 -26.03125 17.6875 -24.28125 C 17.945312 -22.53125 18.117188 -21.171875 18.203125 -20.203125 C 18.273438 -17.671875 18.363281 -15.117188 18.46875 -12.546875 C 18.582031 -9.984375 18.640625 -7.4375 18.640625 -4.90625 Z M 18.640625 -4.90625 "/></g></g></g></svg>