<svg xmlns="http://www.w3.org/2000/svg" xmlns:xlink="http://www.w3.org/1999/xlink" width="500" zoomAndPan="magnify" viewBox="0 0 375 374.999991" height="500" preserveAspectRatio="xMidYMid meet" version="1.0"><defs><g/><clipPath id="bdc10c939c"><path d="M 7 183 L 37 183 L 37 199 L 7 199 Z M 7 183 " clip-rule="nonzero"/></clipPath><clipPath id="b3f12ee81c"><path d="M 0.00390625 216.394531 L 10.023438 178.703125 L 42.640625 187.375 L 32.621094 225.066406 Z M 0.00390625 216.394531 " clip-rule="nonzero"/></clipPath><clipPath id="1898c4c797"><path d="M 0.00390625 216.394531 L 10.023438 178.703125 L 42.640625 187.375 L 32.621094 225.066406 Z M 0.00390625 216.394531 " clip-rule="nonzero"/></clipPath><clipPath id="f9f31886b7"><path d="M 18 201 L 39 201 L 39 222 L 18 222 Z M 18 201 " clip-rule="nonzero"/></clipPath><clipPath id="94eb9bbd41"><path d="M 0.00390625 216.394531 L 10.023438 178.703125 L 42.640625 187.375 L 32.621094 225.066406 Z M 0.00390625 216.394531 " clip-rule="nonzero"/></clipPath><clipPath id="858e7b1365"><path d="M 0.00390625 216.394531 L 10.023438 178.703125 L 42.640625 187.375 L 32.621094 225.066406 Z M 0.00390625 216.394531 " clip-rule="nonzero"/></clipPath><clipPath id="e8523793eb"><path d="M 10 201 L 27 201 L 27 212 L 10 212 Z M 10 201 " clip-rule="nonzero"/></clipPath><clipPath id="e60c589e70"><path d="M 0.00390625 216.394531 L 10.023438 178.703125 L 42.640625 187.375 L 32.621094 225.066406 Z M 0.00390625 216.394531 " clip-rule="nonzero"/></clipPath><clipPath id="f6d0353c6c"><path d="M 0.00390625 216.394531 L 10.023438 178.703125 L 42.640625 187.375 L 32.621094 225.066406 Z M 0.00390625 216.394531 " clip-rule="nonzero"/></clipPath><clipPath id="639a197b19"><path d="M 27 183 L 41 183 L 41 197 L 27 197 Z M 27 183 " clip-rule="nonzero"/></clipPath><clipPath id="067d21b89e"><path d="M 0.00390625 216.394531 L 10.023438 178.703125 L 42.640625 187.375 L 32.621094 225.066406 Z M 0.00390625 216.394531 " clip-rule="nonzero"/></clipPath><clipPath id="7314deab62"><path d="M 0.00390625 216.394531 L 10.023438 178.703125 L 42.640625 187.375 L 32.621094 225.066406 Z M 0.00390625 216.394531 " clip-rule="nonzero"/></clipPath><clipPath id="edf38d505f"><path d="M 8 216 L 13 216 L 13 220 L 8 220 Z M 8 216 " clip-rule="nonzero"/></clipPath><clipPath id="85661d07a5"><path d="M 0.00390625 216.394531 L 10.023438 178.703125 L 42.640625 187.375 L 32.621094 225.066406 Z M 0.00390625 216.394531 " clip-rule="nonzero"/></clipPath><clipPath id="097708734d"><path d="M 0.00390625 216.394531 L 10.023438 178.703125 L 42.640625 187.375 L 32.621094 225.066406 Z M 0.00390625 216.394531 " clip-rule="nonzero"/></clipPath><clipPath id="04e00e2a3f"><path d="M 22 184 L 25 184 L 25 187 L 22 187 Z M 22 184 " clip-rule="nonzero"/></clipPath><clipPath id="fb7e0d2323"><path d="M 0.00390625 216.394531 L 10.023438 178.703125 L 42.640625 187.375 L 32.621094 225.066406 Z M 0.00390625 216.394531 " clip-rule="nonzero"/></clipPath><clipPath id="22acbff732"><path d="M 0.00390625 216.394531 L 10.023438 178.703125 L 42.640625 187.375 L 32.621094 225.066406 Z M 0.00390625 216.394531 " clip-rule="nonzero"/></clipPath><clipPath id="75401c9363"><path d="M 345 200 L 364 200 L 364 217 L 345 217 Z M 345 200 " clip-rule="nonzero"/></clipPath><clipPath id="e874b52347"><path d="M 374.988281 195.65625 L 359.898438 220.710938 L 338.695312 207.945312 L 353.785156 182.886719 Z M 374.988281 195.65625 " clip-rule="nonzero"/></clipPath><clipPath id="28c14d6e6d"><path d="M 374.988281 195.65625 L 359.898438 220.710938 L 338.695312 207.945312 L 353.785156 182.886719 Z M 374.988281 195.65625 " clip-rule="nonzero"/></clipPath><clipPath id="2d72945bfb"><path d="M 344 187 L 363 187 L 363 199 L 344 199 Z M 344 187 " clip-rule="nonzero"/></clipPath><clipPath id="2df7c98d44"><path d="M 374.988281 195.65625 L 359.898438 220.710938 L 338.695312 207.945312 L 353.785156 182.886719 Z M 374.988281 195.65625 " clip-rule="nonzero"/></clipPath><clipPath id="fb43d215d6"><path d="M 374.988281 195.65625 L 359.898438 220.710938 L 338.695312 207.945312 L 353.785156 182.886719 Z M 374.988281 195.65625 " clip-rule="nonzero"/></clipPath><clipPath id="9d5a52969d"><path d="M 353 196 L 367 196 L 367 202 L 353 202 Z M 353 196 " clip-rule="nonzero"/></clipPath><clipPath id="1038d033ec"><path d="M 374.988281 195.65625 L 359.898438 220.710938 L 338.695312 207.945312 L 353.785156 182.886719 Z M 374.988281 195.65625 " clip-rule="nonzero"/></clipPath><clipPath id="2eb6a3e99c"><path d="M 374.988281 195.65625 L 359.898438 220.710938 L 338.695312 207.945312 L 353.785156 182.886719 Z M 374.988281 195.65625 " clip-rule="nonzero"/></clipPath><clipPath id="c4af1c5263"><path d="M 342 201 L 350 201 L 350 213 L 342 213 Z M 342 201 " clip-rule="nonzero"/></clipPath><clipPath id="fed93cafeb"><path d="M 374.988281 195.65625 L 359.898438 220.710938 L 338.695312 207.945312 L 353.785156 182.886719 Z M 374.988281 195.65625 " clip-rule="nonzero"/></clipPath><clipPath id="02956fd971"><path d="M 374.988281 195.65625 L 359.898438 220.710938 L 338.695312 207.945312 L 353.785156 182.886719 Z M 374.988281 195.65625 " clip-rule="nonzero"/></clipPath><clipPath id="f672d396b5"><path d="M 366 191 L 369 191 L 369 194 L 366 194 Z M 366 191 " clip-rule="nonzero"/></clipPath><clipPath id="e84d1cc477"><path d="M 374.988281 195.65625 L 359.898438 220.710938 L 338.695312 207.945312 L 353.785156 182.886719 Z M 374.988281 195.65625 " clip-rule="nonzero"/></clipPath><clipPath id="0126888137"><path d="M 374.988281 195.65625 L 359.898438 220.710938 L 338.695312 207.945312 L 353.785156 182.886719 Z M 374.988281 195.65625 " clip-rule="nonzero"/></clipPath><clipPath id="13166fcc16"><path d="M 350 211 L 353 211 L 353 214 L 350 214 Z M 350 211 " clip-rule="nonzero"/></clipPath><clipPath id="39051eb736"><path d="M 374.988281 195.65625 L 359.898438 220.710938 L 338.695312 207.945312 L 353.785156 182.886719 Z M 374.988281 195.65625 " clip-rule="nonzero"/></clipPath><clipPath id="bed8cc2476"><path d="M 374.988281 195.65625 L 359.898438 220.710938 L 338.695312 207.945312 L 353.785156 182.886719 Z M 374.988281 195.65625 " clip-rule="nonzero"/></clipPath></defs><g fill="#f4a4f0" fill-opacity="1"><g transform="translate(45.199182, 225.84692)"><g><path d="M 4.9375 -80.21875 C 6.09375 -81.289062 7.585938 -81.828125 9.421875 -81.828125 C 11.265625 -81.828125 12.722656 -81.253906 13.796875 -80.109375 C 14.867188 -78.960938 15.441406 -77.085938 15.515625 -74.484375 C 15.441406 -71.878906 15.785156 -66.972656 16.546875 -59.765625 C 17.316406 -52.566406 17.929688 -47.78125 18.390625 -45.40625 C 18.617188 -44.332031 19.132812 -43.96875 19.9375 -44.3125 C 20.75 -44.65625 23.910156 -46.894531 29.421875 -51.03125 C 34.941406 -55.164062 41.070312 -60.066406 47.8125 -65.734375 C 54.550781 -71.410156 58.421875 -74.210938 59.421875 -74.140625 C 60.878906 -74.210938 62.296875 -73.484375 63.671875 -71.953125 C 65.054688 -70.421875 65.75 -68.960938 65.75 -67.578125 C 65.75 -66.203125 65.132812 -64.75 63.90625 -63.21875 C 62.675781 -61.6875 59.53125 -58.847656 54.46875 -54.703125 C 49.414062 -50.566406 41.757812 -44.671875 31.5 -37.015625 C 33.175781 -35.484375 37.3125 -31.570312 43.90625 -25.28125 C 50.5 -19 54.941406 -14.785156 57.234375 -12.640625 C 59.535156 -10.492188 60.992188 -8.921875 61.609375 -7.921875 C 62.222656 -6.929688 62.335938 -5.671875 61.953125 -4.140625 C 61.566406 -2.609375 60.609375 -1.378906 59.078125 -0.453125 C 57.546875 0.460938 55.9375 0.691406 54.25 0.234375 C 52.5625 -0.222656 48.117188 -3.828125 40.921875 -10.578125 C 33.710938 -17.472656 28.765625 -21.992188 26.078125 -24.140625 C 23.398438 -26.285156 21.488281 -27.316406 20.34375 -27.234375 C 19.65625 -27.234375 19.617188 -24.570312 20.234375 -19.25 C 20.847656 -13.925781 21.078125 -10.191406 20.921875 -8.046875 C 20.765625 -5.898438 20.1875 -4.289062 19.1875 -3.21875 C 18.039062 -2.144531 16.625 -1.609375 14.9375 -1.609375 C 13.25 -1.609375 11.867188 -2.238281 10.796875 -3.5 C 9.722656 -4.769531 8.878906 -7.257812 8.265625 -10.96875 C 7.660156 -14.6875 6.742188 -24.820312 5.515625 -41.375 C 4.285156 -57.925781 3.59375 -68.269531 3.4375 -72.40625 C 3.289062 -76.550781 3.789062 -79.15625 4.9375 -80.21875 Z M 4.9375 -80.21875 "/></g></g></g><g clip-path="url(#bdc10c939c)"><g clip-path="url(#b3f12ee81c)"><g clip-path="url(#1898c4c797)"><path fill="#fec017" d="M 7.898438 189.347656 L 7.921875 189.394531 L 7.910156 189.328125 C 8.050781 189.523438 8.179688 189.726562 8.292969 189.9375 C 8.652344 190.679688 9.171875 191.308594 9.613281 191.992188 C 9.714844 192.144531 9.832031 192.28125 9.96875 192.402344 C 10.652344 193.042969 11.300781 193.71875 12.035156 194.300781 C 12.390625 194.582031 12.777344 194.820312 13.125 195.113281 C 13.835938 195.679688 14.613281 196.140625 15.449219 196.496094 C 15.699219 196.609375 15.933594 196.742188 16.183594 196.855469 C 16.566406 197.027344 16.953125 197.203125 17.351562 197.347656 C 17.605469 197.441406 17.882812 197.460938 18.140625 197.542969 C 19.238281 197.890625 20.355469 198.140625 21.496094 198.296875 C 22.125 198.359375 22.75 198.460938 23.367188 198.609375 C 24.074219 198.777344 24.789062 198.871094 25.511719 198.890625 C 25.78125 198.914062 26.0625 198.859375 26.324219 198.898438 C 27.019531 198.96875 27.710938 198.988281 28.40625 198.960938 C 28.828125 198.96875 29.25 198.988281 29.671875 198.980469 C 31.183594 198.953125 32.691406 198.917969 34.199219 198.886719 C 34.714844 198.878906 35.226562 198.878906 35.738281 198.859375 C 35.859375 198.839844 35.96875 198.804688 36.078125 198.753906 C 36.105469 198.738281 36.121094 198.714844 36.125 198.679688 C 36.128906 198.648438 36.121094 198.625 36.097656 198.601562 C 35.839844 198.4375 35.570312 198.316406 35.277344 198.230469 C 34.5625 197.992188 33.882812 197.664062 33.195312 197.359375 C 32.535156 197.0625 31.925781 196.652344 31.234375 196.421875 C 31.179688 196.398438 31.128906 196.367188 31.078125 196.328125 C 30.597656 196.015625 30.097656 195.738281 29.574219 195.503906 C 29.273438 195.355469 28.992188 195.183594 28.722656 194.988281 C 28.109375 194.546875 27.511719 194.085938 26.910156 193.628906 C 26.8125 193.558594 26.71875 193.480469 26.632812 193.398438 C 26.257812 193.046875 25.84375 192.742188 25.398438 192.488281 C 25.019531 192.285156 24.695312 192.023438 24.414062 191.699219 C 24.34375 191.601562 24.25 191.523438 24.140625 191.46875 C 23.765625 191.265625 23.4375 191 23.160156 190.675781 C 23.035156 190.542969 22.894531 190.429688 22.742188 190.335938 C 22.5625 190.222656 22.390625 190.097656 22.226562 189.96875 C 21.722656 189.582031 21.25 189.152344 20.714844 188.816406 C 19.949219 188.335938 19.152344 187.902344 18.347656 187.484375 C 17.9375 187.292969 17.558594 187.042969 17.222656 186.738281 L 17.246094 186.761719 C 16.84375 186.496094 16.414062 186.261719 16.039062 185.957031 C 15.363281 185.449219 14.644531 185.007812 13.882812 184.636719 C 13.558594 184.472656 13.222656 184.339844 12.875 184.234375 C 12.4375 184.113281 11.996094 184.027344 11.542969 183.972656 C 10.929688 183.878906 10.339844 183.957031 9.773438 184.210938 C 9.152344 184.445312 8.699219 184.859375 8.410156 185.457031 C 8.042969 186.136719 7.863281 186.859375 7.867188 187.628906 C 7.855469 188.082031 7.878906 188.535156 7.925781 188.984375 C 7.933594 189.109375 7.921875 189.226562 7.898438 189.347656 Z M 7.898438 189.347656 " fill-opacity="1" fill-rule="nonzero"/></g></g></g><g clip-path="url(#f9f31886b7)"><g clip-path="url(#94eb9bbd41)"><g clip-path="url(#858e7b1365)"><path fill="#fec017" d="M 38.667969 201.652344 L 38.660156 201.621094 L 38.6875 201.675781 C 38.550781 201.585938 38.40625 201.574219 38.253906 201.640625 C 37.523438 201.925781 36.761719 202.140625 36.074219 202.53125 C 35.894531 202.640625 35.703125 202.734375 35.507812 202.816406 C 34.761719 203.148438 34.054688 203.550781 33.386719 204.023438 C 32.347656 204.703125 31.296875 205.355469 30.226562 205.980469 C 29.976562 206.085938 29.734375 206.203125 29.5 206.339844 C 28.929688 206.789062 28.261719 207.097656 27.746094 207.621094 C 27.476562 207.863281 27.1875 208.085938 26.882812 208.28125 C 26.738281 208.390625 26.585938 208.488281 26.445312 208.605469 C 26.070312 208.90625 25.707031 209.226562 25.324219 209.523438 C 24.511719 210.152344 23.753906 210.847656 22.910156 211.4375 C 22.835938 211.492188 22.769531 211.550781 22.703125 211.617188 C 22.089844 212.195312 21.492188 212.792969 20.859375 213.355469 C 20.246094 213.9375 19.703125 214.585938 19.238281 215.292969 C 18.992188 215.640625 18.78125 216.003906 18.597656 216.382812 C 18.261719 216.988281 18.160156 217.632812 18.289062 218.3125 C 18.332031 218.488281 18.347656 218.671875 18.375 218.851562 C 18.457031 219.371094 18.671875 219.832031 19.023438 220.226562 C 19.265625 220.527344 19.566406 220.75 19.929688 220.894531 C 20.289062 221.035156 20.660156 221.082031 21.042969 221.027344 C 21.945312 220.929688 22.734375 220.582031 23.414062 219.984375 C 23.597656 219.824219 23.769531 219.65625 23.953125 219.5 C 24.578125 218.964844 25.128906 218.367188 25.605469 217.699219 C 25.882812 217.304688 26.160156 216.90625 26.453125 216.523438 C 27.570312 215.054688 28.632812 213.550781 29.683594 212.035156 C 30.195312 211.289062 30.71875 210.546875 31.246094 209.8125 C 31.46875 209.488281 31.707031 209.179688 31.96875 208.882812 C 32.601562 208.195312 33.1875 207.464844 33.808594 206.761719 C 34.367188 206.128906 34.9375 205.5 35.511719 204.882812 C 35.921875 204.441406 36.363281 204.023438 36.765625 203.574219 C 37.179688 203.089844 37.640625 202.65625 38.144531 202.269531 C 38.375 202.109375 38.546875 201.90625 38.667969 201.652344 Z M 38.667969 201.652344 " fill-opacity="1" fill-rule="nonzero"/></g></g></g><g clip-path="url(#e8523793eb)"><g clip-path="url(#e60c589e70)"><g clip-path="url(#f6d0353c6c)"><path fill="#fec017" d="M 10.304688 207.511719 C 10.078125 208.15625 10 208.820312 10.066406 209.5 C 10.085938 209.71875 10.179688 209.90625 10.339844 210.058594 C 10.632812 210.320312 10.921875 210.589844 11.234375 210.824219 C 11.644531 211.125 12.101562 211.246094 12.605469 211.183594 C 12.785156 211.164062 12.964844 211.132812 13.140625 211.089844 C 13.910156 210.898438 14.625 210.585938 15.289062 210.148438 C 16.210938 209.570312 17.0625 208.890625 17.945312 208.257812 C 18.410156 207.921875 18.832031 207.53125 19.265625 207.152344 C 19.71875 206.757812 20.15625 206.339844 20.613281 205.945312 C 20.816406 205.761719 21.03125 205.597656 21.261719 205.453125 C 21.910156 205.066406 22.464844 204.542969 23.136719 204.191406 C 23.878906 203.617188 24.671875 203.121094 25.515625 202.703125 C 25.699219 202.601562 25.875 202.484375 26.042969 202.355469 C 26.09375 202.324219 26.128906 202.277344 26.148438 202.21875 C 26.160156 202.160156 26.148438 202.105469 26.113281 202.058594 C 25.992188 201.941406 25.851562 201.90625 25.691406 201.957031 C 25.050781 202.136719 24.402344 202.273438 23.742188 202.375 C 22.992188 202.464844 22.253906 202.609375 21.523438 202.8125 C 21.4375 202.835938 21.347656 202.851562 21.257812 202.859375 C 19.707031 203.132812 18.203125 203.585938 16.691406 204.011719 C 16.367188 204.085938 16.050781 204.183594 15.742188 204.308594 C 15.21875 204.539062 14.679688 204.730469 14.128906 204.890625 C 13.988281 204.945312 13.851562 205.007812 13.71875 205.082031 C 13.261719 205.320312 12.804688 205.554688 12.355469 205.804688 C 11.691406 206.167969 11.09375 206.625 10.566406 207.171875 C 10.472656 207.28125 10.386719 207.394531 10.304688 207.511719 Z M 10.304688 207.511719 " fill-opacity="1" fill-rule="nonzero"/></g></g></g><g clip-path="url(#639a197b19)"><g clip-path="url(#067d21b89e)"><g clip-path="url(#7314deab62)"><path fill="#fec017" d="M 27.8125 186.050781 L 27.796875 186.050781 C 27.800781 186.144531 27.808594 186.234375 27.808594 186.324219 C 27.832031 187.285156 28.113281 188.164062 28.644531 188.964844 C 28.84375 189.265625 29.007812 189.589844 29.195312 189.898438 C 29.269531 190.027344 29.359375 190.148438 29.464844 190.257812 C 29.996094 190.792969 30.527344 191.328125 31.074219 191.84375 C 31.664062 192.402344 32.226562 193 32.980469 193.355469 C 33.136719 193.449219 33.285156 193.550781 33.425781 193.664062 C 33.648438 193.820312 33.882812 193.960938 34.121094 194.089844 C 35.144531 194.609375 36.226562 194.988281 37.289062 195.421875 C 37.597656 195.546875 37.917969 195.628906 38.246094 195.671875 C 38.363281 195.703125 38.476562 195.742188 38.589844 195.792969 C 38.960938 195.917969 39.332031 196.039062 39.707031 196.15625 C 39.765625 196.175781 39.824219 196.183594 39.882812 196.179688 C 39.941406 196.175781 40.015625 196.152344 40.039062 196.109375 C 40.054688 196.054688 40.039062 196 40 195.957031 C 39.214844 195.257812 38.40625 194.578125 37.632812 193.867188 C 37.296875 193.5625 36.980469 193.238281 36.691406 192.890625 C 36.230469 192.332031 35.847656 191.714844 35.355469 191.179688 C 35.242188 191.042969 35.136719 190.894531 35.046875 190.734375 C 34.867188 190.457031 34.707031 190.164062 34.503906 189.902344 C 34.007812 189.257812 33.578125 188.566406 33.210938 187.835938 C 33.140625 187.703125 33.058594 187.574219 32.988281 187.441406 C 32.835938 187.183594 32.695312 186.914062 32.570312 186.640625 C 32.273438 185.90625 31.847656 185.253906 31.289062 184.6875 C 30.949219 184.34375 30.566406 184.058594 30.132812 183.839844 C 29.699219 183.632812 29.257812 183.613281 28.8125 183.785156 C 28.519531 183.886719 28.277344 184.066406 28.089844 184.3125 C 27.902344 184.558594 27.796875 184.839844 27.777344 185.148438 C 27.765625 185.449219 27.800781 185.75 27.8125 186.050781 Z M 27.8125 186.050781 " fill-opacity="1" fill-rule="nonzero"/></g></g></g><g clip-path="url(#edf38d505f)"><g clip-path="url(#85661d07a5)"><g clip-path="url(#097708734d)"><path fill="#fec017" d="M 11.019531 216.191406 C 10.0625 215.929688 9.421875 216.066406 8.882812 216.609375 C 8.65625 216.816406 8.59375 217.066406 8.699219 217.355469 C 8.761719 217.558594 8.855469 217.746094 8.976562 217.917969 C 9.390625 218.40625 9.878906 218.796875 10.445312 219.09375 C 10.605469 219.191406 10.78125 219.226562 10.96875 219.199219 C 11.398438 219.148438 11.773438 218.96875 12.089844 218.667969 C 12.308594 218.5 12.371094 218.28125 12.277344 218.019531 C 12.160156 217.679688 12.023438 217.347656 11.871094 217.019531 C 11.703125 216.625 11.421875 216.347656 11.019531 216.191406 Z M 11.019531 216.191406 " fill-opacity="1" fill-rule="nonzero"/></g></g></g><g clip-path="url(#04e00e2a3f)"><g clip-path="url(#fb7e0d2323)"><g clip-path="url(#22acbff732)"><path fill="#fec017" d="M 24.273438 184.636719 C 24 184.597656 23.738281 184.625 23.484375 184.726562 C 23.339844 184.785156 23.230469 184.886719 23.152344 185.019531 C 23.027344 185.265625 22.953125 185.527344 22.925781 185.800781 C 22.925781 185.859375 22.933594 185.917969 22.949219 185.976562 C 23.023438 186.183594 23.160156 186.335938 23.355469 186.4375 C 23.546875 186.539062 23.75 186.5625 23.960938 186.507812 C 24.160156 186.433594 24.34375 186.332031 24.515625 186.207031 C 24.65625 186.089844 24.765625 185.949219 24.839844 185.785156 C 24.890625 185.671875 24.910156 185.550781 24.90625 185.429688 C 24.902344 185.304688 24.875 185.191406 24.820312 185.082031 C 24.765625 184.96875 24.691406 184.875 24.59375 184.800781 C 24.5 184.722656 24.390625 184.667969 24.273438 184.636719 Z M 24.273438 184.636719 " fill-opacity="1" fill-rule="nonzero"/></g></g></g><g fill="#45b4b1" fill-opacity="1"><g transform="translate(133.973929, 234.128169)"><g><path d="M 48.296875 13.046875 C 47.867188 14.429688 47.597656 14.269531 47.484375 12.5625 C 47.273438 9.226562 47.4375 7.617188 47.96875 7.734375 C 48.082031 7.734375 48.242188 8.160156 48.453125 9.015625 C 48.671875 9.867188 48.617188 11.210938 48.296875 13.046875 Z M 40.5625 -49.90625 C 35.3125 -52.476562 32.578125 -53.765625 32.359375 -53.765625 C 32.140625 -53.765625 30.523438 -52.046875 27.515625 -48.609375 C 24.515625 -45.179688 23.125 -41.265625 23.34375 -36.859375 C 23.5625 -32.460938 25.382812 -28.546875 28.8125 -25.109375 C 32.25 -21.679688 35.738281 -19.320312 39.28125 -18.03125 C 42.820312 -16.957031 45.019531 -16.523438 45.875 -16.734375 C 46.738281 -16.953125 48.03125 -18.03125 49.75 -19.96875 C 54.363281 -25.4375 55.648438 -31.550781 53.609375 -38.3125 C 52.742188 -40.882812 51.664062 -42.816406 50.375 -44.109375 C 49.09375 -45.398438 45.820312 -47.332031 40.5625 -49.90625 Z M 53.609375 -99.8125 C 53.828125 -105.175781 54.628906 -108.71875 56.015625 -110.4375 C 57.523438 -112.15625 59.726562 -113.015625 62.625 -113.015625 C 65.519531 -113.015625 67.664062 -112.257812 69.0625 -110.75 C 70.132812 -108.394531 70.992188 -104.585938 71.640625 -99.328125 C 72.285156 -94.066406 72.925781 -88.269531 73.5625 -81.9375 C 74.207031 -75.601562 74.851562 -69.914062 75.5 -64.875 C 76.25 -59.832031 77.050781 -49.257812 77.90625 -33.15625 C 78.769531 -17.0625 79.144531 -6.972656 79.03125 -2.890625 C 78.925781 1.179688 78.394531 3.914062 77.4375 5.3125 C 75.289062 8.425781 72.390625 9.445312 68.734375 8.375 C 65.085938 7.300781 62.835938 4.832031 61.984375 0.96875 L 60.859375 -3.703125 C 54.847656 0.378906 45.132812 2.578125 31.71875 2.890625 L 20.765625 -7.890625 C 13.253906 -15.296875 8.425781 -22.109375 6.28125 -28.328125 C 4.132812 -34.554688 4.457031 -41.425781 7.25 -48.9375 C 10.46875 -58.382812 15.78125 -64.984375 23.1875 -68.734375 C 27.15625 -70.773438 30.101562 -72.972656 32.03125 -75.328125 C 33.96875 -77.691406 36.222656 -78.769531 38.796875 -78.5625 C 41.484375 -78.34375 43.363281 -77.800781 44.4375 -76.9375 C 45.507812 -76.082031 46.898438 -73.832031 48.609375 -70.1875 C 50.328125 -66.539062 52.148438 -64.285156 54.078125 -63.421875 C 56.015625 -62.566406 57.09375 -62.566406 57.3125 -63.421875 C 57.519531 -64.710938 56.875 -69.757812 55.375 -78.5625 C 53.875 -87.363281 53.285156 -94.445312 53.609375 -99.8125 Z M 53.609375 -99.8125 "/></g></g></g><g fill="#fec017" fill-opacity="1"><g transform="translate(215.275654, 233.96055)"><g><path d="M 53.8125 7.90625 C 51.707031 8.207031 45.226562 8.359375 34.375 8.359375 C 23.519531 8.359375 16.960938 7.984375 14.703125 7.234375 C 12.441406 6.484375 11.007812 4.257812 10.40625 0.5625 C 10.03125 -1.769531 10.707031 -4.289062 12.4375 -7 C 14.164062 -9.71875 18.757812 -15.523438 26.21875 -24.421875 C 33.6875 -33.316406 37.421875 -37.914062 37.421875 -38.21875 C 37.347656 -38.519531 32.710938 -38.519531 23.515625 -38.21875 C 14.316406 -37.914062 8.660156 -38.066406 6.546875 -38.671875 C 4.441406 -39.273438 3.390625 -40.929688 3.390625 -43.640625 C 3.390625 -46.359375 4.066406 -48.054688 5.421875 -48.734375 C 6.785156 -49.410156 10.03125 -49.820312 15.15625 -49.96875 C 20.28125 -50.125 24.765625 -50.425781 28.609375 -50.875 C 42.472656 -52.457031 50.535156 -52.117188 52.796875 -49.859375 C 54.003906 -48.734375 54.71875 -47.035156 54.9375 -44.765625 C 55.164062 -42.503906 54.789062 -40.429688 53.8125 -38.546875 C 52.3125 -36.210938 47.601562 -30.222656 39.6875 -20.578125 C 31.769531 -10.929688 27.171875 -5.203125 25.890625 -3.390625 C 45.410156 -4.296875 56.113281 -4.519531 58 -4.0625 C 58.976562 -3.164062 59.769531 -1.960938 60.375 -0.453125 C 60.976562 1.054688 61.128906 2.148438 60.828125 2.828125 C 60.671875 3.503906 59.988281 4.445312 58.78125 5.65625 C 57.582031 6.863281 55.925781 7.613281 53.8125 7.90625 Z M 53.8125 7.90625 "/></g></g></g><g fill="#f4a4f0" fill-opacity="1"><g transform="translate(279.611587, 233.96055)"><g><path d="M 28.265625 -36.75 C 26.078125 -38.9375 23.851562 -39.195312 21.59375 -37.53125 C 19.332031 -35.875 17.519531 -32.554688 16.15625 -27.578125 C 14.800781 -22.609375 15.101562 -18.015625 17.0625 -13.796875 C 19.03125 -9.578125 21.632812 -7.878906 24.875 -8.703125 C 26.90625 -9.234375 28.375 -9.945312 29.28125 -10.84375 C 30.1875 -11.75 31.015625 -13.554688 31.765625 -16.265625 C 32.523438 -18.984375 32.523438 -22.679688 31.765625 -27.359375 C 31.015625 -32.035156 29.847656 -35.164062 28.265625 -36.75 Z M 3.5 -25.09375 C 3.800781 -30.976562 5.304688 -36.332031 8.015625 -41.15625 C 10.734375 -45.976562 14.238281 -49.253906 18.53125 -50.984375 C 22.832031 -52.722656 29.128906 -51.332031 37.421875 -46.8125 C 41.796875 -44.394531 44.582031 -42.359375 45.78125 -40.703125 C 46.988281 -39.046875 47.066406 -37.160156 46.015625 -35.046875 C 44.960938 -32.941406 44.507812 -28.875 44.65625 -22.84375 C 45.113281 -8.519531 40.023438 0.1875 29.390625 3.28125 C 21.398438 5.613281 14.539062 3.503906 8.8125 -3.046875 C 6.40625 -5.835938 4.820312 -8.742188 4.0625 -11.765625 C 3.382812 -14.773438 3.195312 -19.21875 3.5 -25.09375 Z M 3.5 -25.09375 "/></g></g></g><g clip-path="url(#75401c9363)"><g clip-path="url(#e874b52347)"><g clip-path="url(#28c14d6e6d)"><path fill="#fec017" d="M 363.777344 213.289062 L 363.769531 213.253906 L 363.765625 213.300781 C 363.707031 213.132812 363.65625 212.960938 363.617188 212.789062 C 363.519531 212.1875 363.277344 211.628906 363.105469 211.050781 C 363.0625 210.921875 363.007812 210.800781 362.933594 210.6875 C 362.582031 210.089844 362.257812 209.472656 361.855469 208.90625 C 361.660156 208.632812 361.433594 208.382812 361.246094 208.105469 C 360.855469 207.550781 360.398438 207.0625 359.875 206.640625 C 359.722656 206.507812 359.582031 206.363281 359.429688 206.234375 C 359.1875 206.03125 358.949219 205.824219 358.699219 205.640625 C 358.535156 205.523438 358.34375 205.449219 358.175781 205.335938 C 357.464844 204.863281 356.722656 204.453125 355.941406 204.105469 C 355.503906 203.933594 355.082031 203.730469 354.671875 203.496094 C 354.203125 203.234375 353.714844 203.019531 353.203125 202.855469 C 353.015625 202.785156 352.804688 202.765625 352.625 202.679688 C 352.148438 202.488281 351.65625 202.332031 351.15625 202.207031 C 350.855469 202.117188 350.558594 202.015625 350.257812 201.933594 C 349.175781 201.636719 348.09375 201.351562 347.015625 201.0625 C 346.648438 200.964844 346.28125 200.859375 345.910156 200.765625 C 345.824219 200.753906 345.734375 200.753906 345.648438 200.769531 C 345.625 200.777344 345.609375 200.789062 345.597656 200.8125 C 345.589844 200.832031 345.59375 200.855469 345.605469 200.875 C 345.753906 201.042969 345.921875 201.1875 346.109375 201.308594 C 346.570312 201.625 346.988281 202 347.414062 202.359375 C 347.824219 202.707031 348.171875 203.125 348.617188 203.433594 C 348.652344 203.460938 348.683594 203.492188 348.710938 203.527344 C 348.984375 203.851562 349.289062 204.152344 349.613281 204.429688 C 349.792969 204.59375 349.960938 204.777344 350.109375 204.972656 C 350.453125 205.414062 350.785156 205.863281 351.121094 206.3125 C 351.175781 206.382812 351.226562 206.457031 351.269531 206.535156 C 351.464844 206.863281 351.695312 207.164062 351.960938 207.441406 C 352.1875 207.660156 352.367188 207.914062 352.5 208.203125 C 352.53125 208.289062 352.582031 208.363281 352.648438 208.425781 C 352.875 208.648438 353.050781 208.902344 353.183594 209.191406 C 353.242188 209.3125 353.320312 209.421875 353.410156 209.519531 C 353.515625 209.640625 353.609375 209.761719 353.703125 209.890625 C 353.980469 210.269531 354.230469 210.671875 354.539062 211.019531 C 354.984375 211.523438 355.464844 211.996094 355.949219 212.457031 C 356.203125 212.679688 356.421875 212.9375 356.597656 213.222656 L 356.585938 213.199219 C 356.820312 213.472656 357.074219 213.730469 357.277344 214.023438 C 357.65625 214.523438 358.078125 214.988281 358.542969 215.410156 C 358.738281 215.59375 358.949219 215.757812 359.175781 215.902344 C 359.464844 216.082031 359.761719 216.234375 360.070312 216.367188 C 360.488281 216.558594 360.925781 216.625 361.382812 216.5625 C 361.871094 216.523438 362.28125 216.320312 362.609375 215.953125 C 363.011719 215.546875 363.292969 215.070312 363.445312 214.519531 C 363.546875 214.199219 363.625 213.875 363.683594 213.542969 C 363.707031 213.453125 363.738281 213.371094 363.777344 213.289062 Z M 363.777344 213.289062 " fill-opacity="1" fill-rule="nonzero"/></g></g></g><g clip-path="url(#2d72945bfb)"><g clip-path="url(#2df7c98d44)"><g clip-path="url(#fb43d215d6)"><path fill="#fec017" d="M 344.402344 198.171875 L 344.402344 198.195312 L 344.394531 198.148438 C 344.472656 198.242188 344.574219 198.28125 344.695312 198.265625 C 345.273438 198.214844 345.859375 198.21875 346.429688 198.078125 C 346.582031 198.042969 346.738281 198.011719 346.894531 197.996094 C 347.496094 197.914062 348.082031 197.773438 348.65625 197.574219 C 349.535156 197.304688 350.417969 197.058594 351.308594 196.832031 C 351.507812 196.808594 351.707031 196.773438 351.902344 196.722656 C 352.398438 196.523438 352.9375 196.441406 353.414062 196.171875 C 353.65625 196.058594 353.90625 195.960938 354.164062 195.882812 C 354.289062 195.835938 354.417969 195.796875 354.542969 195.742188 C 354.875 195.605469 355.199219 195.453125 355.53125 195.320312 C 356.242188 195.042969 356.925781 194.703125 357.648438 194.453125 C 357.710938 194.429688 357.773438 194.402344 357.832031 194.371094 C 358.390625 194.082031 358.9375 193.78125 359.503906 193.511719 C 360.0625 193.222656 360.582031 192.875 361.058594 192.46875 C 361.304688 192.269531 361.53125 192.058594 361.742188 191.824219 C 362.105469 191.460938 362.3125 191.023438 362.359375 190.511719 C 362.367188 190.378906 362.390625 190.246094 362.410156 190.113281 C 362.460938 189.722656 362.398438 189.351562 362.230469 188.996094 C 362.121094 188.730469 361.953125 188.511719 361.726562 188.335938 C 361.496094 188.160156 361.242188 188.050781 360.957031 188.007812 C 360.296875 187.894531 359.660156 187.980469 359.054688 188.265625 C 358.890625 188.339844 358.730469 188.421875 358.570312 188.496094 C 358.015625 188.746094 357.5 189.0625 357.019531 189.4375 C 356.742188 189.660156 356.460938 189.886719 356.175781 190.101562 C 355.078125 190.917969 354.007812 191.769531 352.949219 192.632812 C 352.425781 193.054688 351.902344 193.476562 351.375 193.890625 C 351.148438 194.078125 350.914062 194.246094 350.667969 194.402344 C 350.074219 194.765625 349.503906 195.164062 348.917969 195.535156 C 348.390625 195.871094 347.855469 196.199219 347.316406 196.523438 C 346.933594 196.753906 346.535156 196.957031 346.152344 197.195312 C 345.757812 197.453125 345.34375 197.667969 344.902344 197.839844 C 344.707031 197.90625 344.539062 198.015625 344.402344 198.171875 Z M 344.402344 198.171875 " fill-opacity="1" fill-rule="nonzero"/></g></g></g><g clip-path="url(#9d5a52969d)"><g clip-path="url(#1038d033ec)"><g clip-path="url(#2eb6a3e99c)"><path fill="#fec017" d="M 365.816406 199.855469 C 366.109375 199.441406 366.304688 198.984375 366.398438 198.488281 C 366.425781 198.328125 366.398438 198.175781 366.316406 198.035156 C 366.164062 197.785156 366.011719 197.535156 365.839844 197.304688 C 365.609375 197.003906 365.308594 196.824219 364.9375 196.765625 C 364.804688 196.742188 364.671875 196.726562 364.535156 196.71875 C 363.949219 196.695312 363.371094 196.773438 362.808594 196.949219 C 362.035156 197.167969 361.285156 197.476562 360.527344 197.746094 C 360.128906 197.886719 359.746094 198.082031 359.359375 198.257812 C 358.953125 198.449219 358.554688 198.652344 358.148438 198.84375 C 357.96875 198.929688 357.78125 199.003906 357.585938 199.058594 C 357.042969 199.199219 356.539062 199.457031 355.988281 199.570312 C 355.339844 199.824219 354.675781 200.015625 353.988281 200.136719 C 353.835938 200.175781 353.6875 200.21875 353.539062 200.277344 C 353.496094 200.289062 353.464844 200.316406 353.4375 200.351562 C 353.417969 200.394531 353.414062 200.433594 353.429688 200.476562 C 353.492188 200.582031 353.582031 200.636719 353.707031 200.636719 C 354.203125 200.636719 354.691406 200.671875 355.183594 200.738281 C 355.734375 200.828125 356.292969 200.878906 356.851562 200.886719 C 356.921875 200.886719 356.988281 200.894531 357.054688 200.90625 C 358.214844 201.03125 359.378906 201.019531 360.546875 201.027344 C 360.789062 201.042969 361.035156 201.039062 361.28125 201.011719 C 361.703125 200.957031 362.125 200.933594 362.550781 200.933594 C 362.664062 200.921875 362.773438 200.90625 362.882812 200.878906 C 363.257812 200.804688 363.632812 200.734375 364.003906 200.648438 C 364.550781 200.523438 365.070312 200.324219 365.558594 200.042969 C 365.648438 199.984375 365.734375 199.921875 365.816406 199.855469 Z M 365.816406 199.855469 " fill-opacity="1" fill-rule="nonzero"/></g></g></g><g clip-path="url(#c4af1c5263)"><g clip-path="url(#fed93cafeb)"><g clip-path="url(#02956fd971)"><path fill="#fec017" d="M 348.914062 211.523438 L 348.921875 211.527344 C 348.941406 211.460938 348.953125 211.398438 348.972656 211.332031 C 349.152344 210.644531 349.136719 209.957031 348.921875 209.277344 C 348.84375 209.023438 348.792969 208.757812 348.722656 208.5 C 348.695312 208.390625 348.65625 208.285156 348.605469 208.1875 C 348.335938 207.699219 348.070312 207.207031 347.785156 206.726562 C 347.480469 206.203125 347.203125 205.664062 346.742188 205.253906 C 346.648438 205.15625 346.566406 205.050781 346.484375 204.941406 C 346.359375 204.785156 346.222656 204.636719 346.082031 204.496094 C 345.457031 203.917969 344.765625 203.421875 344.101562 202.894531 C 343.90625 202.742188 343.695312 202.617188 343.46875 202.515625 C 343.390625 202.46875 343.316406 202.417969 343.25 202.359375 C 343.011719 202.195312 342.769531 202.03125 342.527344 201.871094 C 342.492188 201.84375 342.449219 201.828125 342.40625 201.816406 C 342.367188 201.808594 342.308594 201.8125 342.28125 201.835938 C 342.257812 201.875 342.257812 201.914062 342.277344 201.953125 C 342.691406 202.613281 343.128906 203.261719 343.53125 203.929688 C 343.710938 204.214844 343.867188 204.511719 344 204.820312 C 344.214844 205.3125 344.359375 205.832031 344.597656 206.3125 C 344.652344 206.4375 344.695312 206.5625 344.726562 206.695312 C 344.800781 206.929688 344.851562 207.171875 344.941406 207.398438 C 345.164062 207.964844 345.328125 208.542969 345.4375 209.140625 C 345.457031 209.25 345.492188 209.355469 345.515625 209.464844 C 345.570312 209.683594 345.613281 209.902344 345.644531 210.121094 C 345.703125 210.707031 345.875 211.261719 346.15625 211.777344 C 346.324219 212.09375 346.542969 212.375 346.804688 212.621094 C 347.070312 212.859375 347.378906 212.964844 347.734375 212.933594 C 347.964844 212.921875 348.171875 212.84375 348.355469 212.707031 C 348.539062 212.570312 348.671875 212.390625 348.75 212.175781 C 348.820312 211.964844 348.859375 211.742188 348.914062 211.523438 Z M 348.914062 211.523438 " fill-opacity="1" fill-rule="nonzero"/></g></g></g><g clip-path="url(#f672d396b5)"><g clip-path="url(#e84d1cc477)"><g clip-path="url(#0126888137)"><path fill="#fec017" d="M 367.097656 193.523438 C 367.726562 193.910156 368.210938 193.941406 368.707031 193.667969 C 368.910156 193.566406 369.007812 193.402344 368.992188 193.171875 C 368.992188 193.015625 368.964844 192.863281 368.910156 192.714844 C 368.714844 192.285156 368.449219 191.902344 368.109375 191.574219 C 368.011719 191.472656 367.894531 191.410156 367.757812 191.390625 C 367.4375 191.339844 367.136719 191.390625 366.847656 191.539062 C 366.660156 191.617188 366.570312 191.757812 366.582031 191.960938 C 366.59375 192.230469 366.625 192.496094 366.664062 192.757812 C 366.699219 193.074219 366.847656 193.328125 367.097656 193.523438 Z M 367.097656 193.523438 " fill-opacity="1" fill-rule="nonzero"/></g></g></g><g clip-path="url(#13166fcc16)"><g clip-path="url(#39051eb736)"><g clip-path="url(#bed8cc2476)"><path fill="#fec017" d="M 351.140625 213.261719 C 351.328125 213.347656 351.519531 213.382812 351.722656 213.363281 C 351.839844 213.351562 351.9375 213.300781 352.019531 213.222656 C 352.160156 213.074219 352.265625 212.902344 352.339844 212.714844 C 352.355469 212.671875 352.363281 212.628906 352.363281 212.582031 C 352.351562 212.421875 352.285156 212.28125 352.167969 212.171875 C 352.050781 212.058594 351.910156 212 351.75 211.996094 C 351.59375 212.007812 351.441406 212.042969 351.292969 212.09375 C 351.167969 212.148438 351.0625 212.226562 350.972656 212.328125 C 350.855469 212.476562 350.808594 212.648438 350.84375 212.835938 C 350.878906 213.023438 350.976562 213.167969 351.140625 213.261719 Z M 351.140625 213.261719 " fill-opacity="1" fill-rule="nonzero"/></g></g></g><g fill="#fec017" fill-opacity="1"><g transform="translate(113.675548, 236.023645)"><g><path d="M 17.921875 -10.796875 C 17.085938 -9.117188 15.519531 -8.28125 13.21875 -8.28125 C 10.914062 -8.28125 9.304688 -9.046875 8.390625 -10.578125 C 7.546875 -12.109375 6.507812 -15.785156 5.28125 -21.609375 C 4.0625 -27.429688 3.453125 -31.953125 3.453125 -35.171875 C 3.453125 -38.234375 4.023438 -40.453125 5.171875 -41.828125 C 6.316406 -43.210938 7.960938 -43.90625 10.109375 -43.90625 C 12.253906 -43.90625 13.707031 -43.367188 14.46875 -42.296875 C 15.238281 -41.222656 15.929688 -39.15625 16.546875 -36.09375 C 17.085938 -33.03125 17.78125 -27.4375 18.625 -19.3125 C 19 -15.320312 18.765625 -12.484375 17.921875 -10.796875 Z M 16.78125 -59.53125 C 16.78125 -57.851562 16.085938 -56.320312 14.703125 -54.9375 C 13.328125 -53.5625 11.835938 -52.875 10.234375 -52.875 C 7.773438 -52.875 6.085938 -54.289062 5.171875 -57.125 C 4.328125 -59.957031 4.75 -62.367188 6.4375 -64.359375 C 8.125 -66.359375 10.269531 -66.742188 12.875 -65.515625 C 15.476562 -64.285156 16.78125 -62.289062 16.78125 -59.53125 Z M 16.78125 -59.53125 "/></g></g></g></svg>